<svg width="131" height="29" viewBox="0 0 131 29" fill="none" xmlns="http://www.w3.org/2000/svg">
<g clip-path="url(#clip0_3_38)">
<path d="M28.1779 12.4822C27.9466 12.4814 27.7174 12.5275 27.504 12.6176C27.2906 12.7078 27.0972 12.8403 26.9352 13.0073C26.7625 13.1699 26.6255 13.3673 26.5331 13.5868C26.4407 13.8063 26.3949 14.0431 26.3988 14.2816V20.9504C26.3943 21.4323 26.3257 21.9114 26.195 22.3748C26.0595 22.8746 25.8333 23.3447 25.5281 23.7612C25.1953 24.2065 24.7634 24.5663 24.2675 24.8114C23.6354 25.1073 22.9431 25.2482 22.247 25.2226H7.30346C6.80668 25.2264 6.31247 25.1507 5.83905 24.9984C5.41097 24.8639 5.00946 24.6546 4.65269 24.3802C4.33991 24.1412 4.07016 23.8496 3.85523 23.5181C3.66223 23.2231 3.55903 22.8775 3.55841 22.5239C3.56034 22.1692 3.45792 21.8218 3.26416 21.5261C3.07041 21.2303 2.79405 20.9994 2.47021 20.8627C2.14636 20.726 1.78965 20.6898 1.44536 20.7586C1.10108 20.8272 0.784774 20.9979 0.536622 21.2487C0.363997 21.4115 0.227068 21.6092 0.134674 21.8288C0.0422796 22.0484 -0.00352675 22.2853 0.000211728 22.5239C0.00188254 23.3317 0.172497 24.13 0.500862 24.8665C0.827214 25.6185 1.28582 26.3044 1.85441 26.8909C2.42344 27.4797 3.09546 27.9568 3.83645 28.2981C4.58615 28.6475 5.40243 28.8267 6.22794 28.8231H22.9873C24 28.8363 24.998 28.5774 25.8794 28.073C26.7332 27.5827 27.4828 26.9267 28.085 26.1426C29.2841 24.5672 29.9417 22.6391 29.9579 20.6513V14.2789C29.9585 14.0425 29.9129 13.8084 29.8236 13.59C29.7343 13.3715 29.6032 13.1731 29.4377 13.0061C29.2723 12.8391 29.0758 12.7069 28.8596 12.6169C28.6434 12.527 28.4117 12.4812 28.1779 12.4822Z" fill="white"/>
<path d="M96.4393 20.313C95.9865 19.8584 95.4511 19.4958 94.8631 19.2448C94.2482 18.9805 93.5854 18.8467 92.9173 18.8517H72.4161C72.2336 18.8522 72.0524 18.8159 71.8837 18.745C71.7144 18.6741 71.5613 18.57 71.4327 18.4387C71.2975 18.3158 71.1898 18.1654 71.1156 17.9973C71.0421 17.8292 71.0044 17.6473 71.0056 17.4635C71.0008 17.2763 71.0361 17.0903 71.1103 16.9185C71.1838 16.7468 71.2939 16.5935 71.4327 16.4693C71.6977 16.2142 72.0506 16.0729 72.4161 16.0753H94.9971C95.4697 16.0753 95.9225 15.8857 96.2563 15.5483C96.5901 15.2108 96.7773 14.7531 96.7773 14.2759C96.7773 13.7987 96.5901 13.341 96.2563 13.0035C95.9225 12.6661 95.4697 12.4765 94.9971 12.4765H72.4867C71.8239 12.4705 71.1671 12.6048 70.5587 12.8705C69.3857 13.3822 68.4508 14.3276 67.9453 15.5132C67.6887 16.1301 67.5565 16.7928 67.5565 17.4622C67.5565 18.1315 67.6887 18.7941 67.9453 19.4111C68.4508 20.5967 69.3857 21.542 70.5587 22.0537C71.1671 22.3185 71.8239 22.4524 72.4867 22.4468H93.068C93.2481 22.4456 93.4269 22.4816 93.5926 22.5526C93.7583 22.6236 93.9084 22.7282 94.0329 22.8599C94.1651 22.9915 94.2697 23.1491 94.3397 23.323C94.4097 23.4969 94.4444 23.6834 94.4402 23.8712C94.4432 24.0506 94.4079 24.2286 94.3379 24.3933C94.2674 24.5582 94.1633 24.706 94.0329 24.8274C93.9055 24.9542 93.7547 25.0543 93.5896 25.1219C93.4239 25.1895 93.2469 25.2233 93.068 25.2214H70.4493C69.9773 25.2214 69.5245 25.411 69.1907 25.7484C68.8569 26.0859 68.6691 26.5436 68.6691 27.0208C68.6691 27.498 68.8569 27.9557 69.1907 28.2932C69.5245 28.6306 69.9773 28.8202 70.4493 28.8202H92.9191C93.5854 28.8253 94.247 28.6978 94.8649 28.4451C95.4547 28.206 95.9901 27.8495 96.4405 27.3968C96.8874 26.9438 97.2457 26.4097 97.4969 25.8224C97.7595 25.207 97.8917 24.543 97.8851 23.873C97.8899 23.1973 97.7583 22.5277 97.4969 21.9055C97.2487 21.3112 96.8892 20.7707 96.4393 20.313Z" fill="white"/>
<path d="M130.069 13.005C129.82 12.7529 129.502 12.5811 129.156 12.5116C128.811 12.442 128.453 12.4777 128.127 12.6142C127.802 12.7507 127.523 12.9818 127.328 13.2782C127.133 13.5746 127.029 13.9231 127.029 14.2793V20.0517C126.338 19.6511 125.596 19.3471 124.823 19.1479C124.067 18.9515 123.288 18.851 122.506 18.8488H109.637C109.151 18.844 108.667 18.7873 108.192 18.6798C107.673 18.5675 107.177 18.3644 106.727 18.0797C106.255 17.7775 105.861 17.3665 105.577 16.8804C105.246 16.2802 105.086 15.5993 105.114 14.9129V14.2757C105.114 13.7985 104.926 13.3408 104.592 13.0033C104.259 12.6659 103.806 12.4763 103.334 12.4763C102.862 12.4763 102.409 12.6659 102.075 13.0033C101.742 13.3408 101.554 13.7985 101.554 14.2757V27.0188C101.554 27.496 101.742 27.9537 102.075 28.2912C102.409 28.6286 102.862 28.8182 103.334 28.8182C103.806 28.8182 104.259 28.6286 104.592 28.2912C104.926 27.9537 105.114 27.496 105.114 27.0188V21.2492C105.805 21.6502 106.547 21.9543 107.32 22.1529C108.077 22.3499 108.855 22.4504 109.637 22.4521H122.504C122.977 22.4581 123.449 22.5083 123.912 22.6021C124.424 22.6997 124.914 22.8901 125.359 23.1643C125.82 23.456 126.213 23.8466 126.509 24.3084C126.849 24.8655 127.029 25.508 127.028 26.1629V27.0251C127.028 27.5024 127.215 27.96 127.549 28.2975C127.882 28.6349 128.335 28.8245 128.807 28.8245C129.28 28.8245 129.732 28.6349 130.066 28.2975C130.399 27.96 130.587 27.5024 130.587 27.0251V14.2821C130.592 14.0446 130.548 13.8088 130.459 13.5891C130.37 13.3695 130.237 13.1706 130.069 13.005Z" fill="white"/>
<path d="M63.4023 17.8403C63.1175 16.914 62.6851 16.0408 62.1234 15.2546C61.5754 14.4885 60.8893 13.8336 60.1015 13.3242C59.2895 12.8056 58.3556 12.5146 57.3955 12.481H55.5646L52.9585 16.0797H56.2467C56.9671 16.0515 57.6824 16.2128 58.3226 16.5479C58.8288 16.8267 59.2661 17.2176 59.6019 17.6912C59.9071 18.1372 60.1201 18.641 60.2278 19.1725C60.4503 20.1466 60.4503 21.159 60.2278 22.1332C60.1201 22.6645 59.9071 23.1684 59.6019 23.6144C59.2663 24.088 58.8289 24.4786 58.3226 24.7568C57.6825 25.092 56.9671 25.2533 56.2467 25.2249H41.2665C40.5397 25.2576 39.8172 25.0962 39.1718 24.7568C38.6733 24.4748 38.2428 24.0846 37.9113 23.6144C37.6039 23.169 37.3894 22.665 37.281 22.1332C37.0588 21.159 37.0588 20.1466 37.281 19.1725C37.3895 18.6406 37.604 18.1366 37.9113 17.6912C38.2432 17.2217 38.6736 16.8323 39.1718 16.5506C39.8172 16.2112 40.5397 16.0498 41.2665 16.0825H45.3584L42.7238 12.4837H40.4887C39.4872 12.4674 38.5002 12.7267 37.6332 13.2338C36.7981 13.7284 36.0675 14.3843 35.4831 15.1642C34.888 15.9539 34.4303 16.8401 34.1296 17.7852C33.518 19.6264 33.5114 21.6182 34.1108 23.4635C34.3958 24.3898 34.8279 25.2631 35.3901 26.0492C35.9373 26.8159 36.6232 27.4709 37.4115 27.9796C38.2235 28.4987 39.1576 28.7898 40.1177 28.8228H57.0254C58.027 28.8394 59.0141 28.5801 59.8808 28.0727C60.7159 27.5778 61.4468 26.9219 62.0318 26.1423C62.6264 25.3524 63.084 24.4662 63.3855 23.5214C63.9968 21.6801 64.0034 19.6882 63.4035 17.843L63.4023 17.8403Z" fill="white"/>
<path d="M49.1314 19.4493L53.3905 13.7095H44.8723L49.1314 19.4493Z" fill="#CF4338"/>
<path d="M49.8821 6.46646L54.2959 12.4792L58.6989 6.56046L54.2118 0.552246L49.8821 6.46646Z" fill="#691C00"/>
<path d="M49.1646 7.34448L45.2229 12.6505H53.1063L49.1646 7.34448Z" fill="#9A281E"/>
<path d="M44.0334 12.4792L53.3035 0H44.2283L39.6196 6.63091L44.0334 12.4792Z" fill="#CF4338"/>
</g>
<defs>
<clipPath id="clip0_3_38">
<rect width="131" height="29" fill="white"/>
</clipPath>
</defs>
</svg>
