<svg width="65" height="64" viewBox="0 0 65 64" fill="none" xmlns="http://www.w3.org/2000/svg">
<mask id="mask0_9_58" style="mask-type:luminance" maskUnits="userSpaceOnUse" x="0" y="0" width="65" height="64">
<path d="M64.5 0H0.5V64H64.5V0Z" fill="white"/>
</mask>
<g mask="url(#mask0_9_58)">
<path d="M32.4999 7.66272C45.9316 7.66272 56.8371 18.5682 56.8371 32C56.8371 45.4317 45.9316 56.3372 32.4999 56.3372C19.0681 56.3372 8.1626 45.4317 8.1626 32C8.1626 18.5682 19.0681 7.66272 32.4999 7.66272Z" fill="#E60027"/>
<g opacity="0.29">
<path d="M32.4998 4.1427C47.8742 4.1427 60.3571 16.6255 60.3571 32C60.3571 47.3744 47.8742 59.8572 32.4998 59.8572C17.1254 59.8572 4.64258 47.3744 4.64258 32C4.64258 16.6255 17.1254 4.1427 32.4998 4.1427Z" fill="#FF899D"/>
</g>
<path d="M32.4997 21.9875C30.5654 21.9875 28.9917 23.5612 28.9917 25.4955V32.39C28.9917 34.324 30.5654 35.8977 32.4997 35.8977C34.434 35.8977 36.0077 34.335 36.0077 32.4141V25.4955C36.0077 23.5612 34.434 21.9875 32.4997 21.9875ZM34.5458 32.4139C34.5458 33.5287 33.6278 34.4359 32.4997 34.4359C31.3715 34.4359 30.4534 33.5182 30.4534 32.3898V25.4955C30.4534 24.3671 31.3713 23.4492 32.4997 23.4492C33.628 23.4492 34.546 24.3671 34.5458 25.4955V32.4139Z" fill="white"/>
<path d="M31.7686 37.9929H33.2302V41.2817H31.7686V37.9929Z" fill="white"/>
<path d="M34.4241 40.5508H30.5751C30.1714 40.5508 29.8442 40.8779 29.8442 41.2817C29.8442 41.6853 30.1714 42.0124 30.5751 42.0124H34.4241C34.8278 42.0124 35.155 41.6853 35.155 41.2817C35.155 40.8779 34.8278 40.5508 34.4241 40.5508Z" fill="white"/>
<path d="M38.0296 31.1718C37.626 31.1718 37.2988 31.4989 37.2988 31.9026V32.4873C37.2988 35.1334 35.1458 37.2864 32.4996 37.2864C29.8533 37.2864 27.7004 35.1334 27.7004 32.4873V31.9026C27.7004 31.4989 27.3733 31.1718 26.9696 31.1718C26.566 31.1718 26.2388 31.4989 26.2388 31.9026V32.4873C26.2388 35.9395 29.0474 38.7481 32.4996 38.7481C35.9518 38.7481 38.7604 35.9395 38.7604 32.4873V31.9026C38.7604 31.499 38.4333 31.1718 38.0296 31.1718Z" fill="white"/>
</g>
</svg>
